<svg width="75" height="27" viewBox="0 0 75 27" fill="none" xmlns="http://www.w3.org/2000/svg">
<path d="M12.9406 4.25313C13.0457 4.25144 13.1507 4.25059 13.2567 4.2489C16.1969 10.0425 19.1379 15.8352 22.0764 21.6305C22.2421 21.9546 22.3976 22.2856 22.5855 22.5996C22.6052 16.5199 22.5881 10.4403 22.5941 4.36063C23.9881 4.36063 25.3814 4.35809 26.7754 4.36232C26.778 7.13088 26.7703 9.89859 26.7797 12.6671C28.6897 9.95953 30.616 7.26376 32.5226 4.55445C32.5867 4.49266 32.6157 4.35639 32.7233 4.36401C34.3327 4.34793 35.9437 4.37755 37.5531 4.34962C37.5257 4.39617 37.4719 4.48928 37.4454 4.53668C35.4338 7.19435 33.4289 9.85796 31.419 12.5173C31.3506 12.5884 31.3002 12.7323 31.4301 12.7738C31.975 13.0582 32.4602 13.4501 32.854 13.9198C33.5331 14.7044 33.9594 15.6583 34.4403 16.5665C35.3817 18.3947 36.3358 20.217 37.2737 22.0477C37.3703 22.2331 37.4847 22.4117 37.5454 22.614C37.5343 22.625 37.5112 22.6487 37.5001 22.6597C36.0112 22.6648 34.5215 22.6622 33.0326 22.6605C32.1425 20.7942 31.2387 18.9339 30.3444 17.0692C30.0334 16.4091 29.5388 15.7895 28.8426 15.506C28.1909 15.2393 27.4733 15.1962 26.7763 15.1996C26.7746 17.6863 26.7746 20.173 26.7763 22.6597C23.9625 22.6656 21.1487 22.6605 18.3341 22.6622C17.8771 21.6948 17.4235 20.7257 16.9511 19.7659C14.4346 19.7828 11.9172 19.7565 9.40074 19.7786C8.96423 20.7468 8.49954 21.7016 8.04681 22.6622C6.60233 22.6605 5.15785 22.6665 3.71338 22.6588C6.78684 16.5225 9.87312 10.3929 12.9406 4.25313ZM10.9622 16.5174C12.4375 16.5098 13.9144 16.5377 15.3896 16.5039C14.6533 14.7907 13.6897 13.1674 13.1712 11.3671C12.6587 13.1716 11.6986 14.8018 10.9622 16.5174Z" fill="#D1D1D7"/>
<path d="M61.9117 4.25479C62.0168 4.2531 62.1227 4.25225 62.2295 4.2514C65.291 10.3928 68.3858 16.5191 71.4499 22.6596C70.0088 22.6656 68.5678 22.6605 67.1267 22.6622C66.6671 21.7015 66.217 20.7375 65.7659 19.7726C63.2503 19.7624 60.7346 19.7777 58.219 19.765C57.7389 20.7214 57.2973 21.6973 56.8309 22.6605C54.0196 22.6622 51.2076 22.6664 48.3964 22.658C48.3981 20.1704 48.3989 17.6828 48.3955 15.1953C47.5925 15.1987 46.7443 15.2452 46.031 15.6498C45.4613 15.985 45.0666 16.5427 44.795 17.1301C43.91 18.9711 43.0191 20.8103 42.1409 22.6537C40.594 22.6723 39.047 22.6596 37.5 22.6596C37.5111 22.6486 37.5342 22.6249 37.5453 22.6139C37.6495 22.5251 37.7153 22.404 37.7768 22.2847C38.9599 19.9596 40.1523 17.6388 41.3448 15.3189C41.8975 14.2837 42.6501 13.2909 43.7349 12.7644C43.8613 12.7306 43.8212 12.5808 43.7494 12.5164C41.7694 9.90786 39.7919 7.29758 37.8101 4.69068C37.7631 4.6399 37.67 4.54002 37.623 4.48924C37.7101 4.42407 37.7904 4.31488 37.9203 4.35974C39.4348 4.36482 40.9493 4.3589 42.4638 4.36313C44.4482 7.12407 46.4052 9.90532 48.3938 12.6629C48.4023 9.89601 48.3946 7.12999 48.3981 4.36313C49.7904 4.35974 51.1837 4.36228 52.576 4.36144C52.5777 9.05893 52.5769 13.7556 52.5769 18.4522C52.5854 19.8428 52.5606 21.2335 52.5897 22.6233C55.6999 16.5021 58.8084 10.3793 61.9117 4.25479ZM62.0031 11.3459C61.4906 13.1597 60.4997 14.7848 59.7856 16.5182C61.2608 16.5216 62.736 16.5207 64.2113 16.5182C63.4749 14.7949 62.5011 13.1622 62.0031 11.3459Z" fill="#D1D1D7"/>
</svg>
