<svg width="9" height="16" viewBox="0 0 9 16" fill="none" xmlns="http://www.w3.org/2000/svg">
<path d="M5.43061 0.101556C6.26415 -0.0433245 7.1126 0.0148067 7.95452 0.00318047C8.28178 0.0103351 8.62303 -0.0370642 8.93444 0.0863529C9.05192 0.568395 8.9708 1.06653 8.99411 1.55663C8.96987 2.04046 9.05844 2.5377 8.91952 3.0108C8.14472 3.2004 7.32611 3.01259 6.54013 3.14674C6.30517 3.19772 6.15506 3.38552 6.06182 3.58585C6.01521 4.29863 6.04224 5.0132 6.04224 5.72687C6.90375 5.71793 7.76618 5.73313 8.62769 5.7224C8.76661 5.77427 8.85612 5.88695 8.91672 6.01305C8.9074 6.85283 8.91859 7.69349 8.91206 8.53327C8.91299 8.66652 8.87477 8.7962 8.84773 8.92588C8.7116 8.97238 8.57268 9.01799 8.4263 9.01084C7.63192 9.01084 6.83755 9.01352 6.04318 9.00994C6.03945 11.2055 6.04784 13.4011 6.03851 15.5967C6.05716 15.7925 5.90892 16 5.68981 15.9893C4.83017 16.0098 3.9696 15.992 3.11089 16C2.9384 15.9866 2.73235 16.0268 2.59809 15.8963C2.4974 15.788 2.50952 15.636 2.50206 15.5019C2.50019 13.343 2.50392 11.1832 2.50019 9.02336C1.75803 9.0171 1.01587 9.03677 0.275573 9.01441C0.0657914 9.02336 -0.0115949 8.78278 0.00239061 8.61912C0.00145824 7.84285 0.00425549 7.06657 0.0014584 6.2903C-0.00972997 6.12306 0.0452794 5.96387 0.104018 5.80915C0.900257 5.75191 1.69929 5.79573 2.4974 5.78321C2.54215 4.60538 2.36034 3.38284 2.80974 2.25331C3.22557 1.16133 4.2605 0.358228 5.43061 0.101556Z" fill="#A9A9AF"/>
</svg>
