<svg width="16" height="16" viewBox="0 0 16 16" fill="none" xmlns="http://www.w3.org/2000/svg">
<path d="M2.87022 0.230109C3.3259 0.0793958 3.80586 -0.00346055 4.28725 0.000110848C6.78778 0.000825127 9.28758 -0.000603414 11.7881 0.000825143C12.8552 0.00725365 13.9144 0.424393 14.6822 1.16939C15.515 1.94866 15.9942 3.0758 15.9992 4.21507C16.0006 6.71433 15.9992 9.21359 15.9999 11.7129C16.0028 12.1936 15.9214 12.675 15.7692 13.1314C15.365 14.3535 14.3551 15.3635 13.1323 15.77C12.678 15.9221 12.1981 16.0014 11.7188 16C9.24116 16 6.76421 16 4.28725 16C3.80586 16.0021 3.32447 15.9214 2.86808 15.7692C1.64531 15.3628 0.638247 14.3535 0.229707 13.1321C0.0797187 12.6743 -0.0024179 12.1921 0.00115326 11.71C0.00115326 9.28217 0.00186749 6.85433 0.00115326 4.4265C-0.0174167 3.56579 0.187568 2.68437 0.667531 1.96224C1.17678 1.1601 1.96672 0.528677 2.87022 0.230109ZM12.0295 3.35651C11.8438 3.71365 12.2831 4.15364 12.6409 3.97222C12.893 3.87293 12.9602 3.57793 12.8887 3.33794C12.8202 3.25508 12.7445 3.17937 12.6623 3.11222C12.4231 3.03937 12.1302 3.10651 12.0295 3.35651ZM6.72492 4.23007C5.3836 4.67221 4.32082 5.88434 4.08798 7.28218C3.93799 8.02003 4.0437 8.79074 4.30511 9.49145C4.73508 10.55 5.63572 11.4143 6.72492 11.77C7.54629 12.045 8.45336 12.0521 9.27473 11.7707C10.4332 11.3893 11.3889 10.4336 11.771 9.27502C12.0517 8.4536 12.0467 7.54718 11.771 6.72505C11.3617 5.47506 10.2804 4.45578 8.99689 4.15079C8.25338 3.9465 7.45344 3.9865 6.72492 4.23007Z" fill="#A9A9AF"/>
<path d="M7.60585 4.97873C8.47578 4.86016 9.39571 5.14873 10.0421 5.74372C10.6606 6.29157 11.022 7.10442 11.0484 7.92726C11.0584 8.71154 10.7706 9.50724 10.2235 10.0751C9.57426 10.7894 8.56506 11.1472 7.61014 11.0237C7.05304 10.9337 6.50237 10.7237 6.07097 10.3508C5.4246 9.83367 5.02677 9.03868 4.95963 8.21797C4.8975 7.29942 5.26675 6.35586 5.96027 5.74515C6.4088 5.32016 7.00019 5.07087 7.60585 4.97873Z" fill="#A9A9AF"/>
</svg>
