<svg width="18" height="17" viewBox="0 0 18 17" fill="none" xmlns="http://www.w3.org/2000/svg">
<g clip-path="url(#clip0)">
<path d="M2.45815 0.0509325C2.9966 -0.0774245 3.58582 0.0409894 4.03634 0.35917C4.54669 0.749665 4.90476 1.38151 4.85127 2.03504C4.81139 2.9941 3.97198 3.86639 3.00204 3.90164C2.09465 3.97667 1.21354 3.28788 1.01049 2.41379C0.728573 1.4023 1.42113 0.252507 2.45815 0.0509325Z" fill="#A9A9AF"/>
<path d="M12.3189 5.18245C12.9289 5.11556 13.5453 5.12008 14.1554 5.18516C15.0664 5.32527 15.9711 5.78988 16.4497 6.6007C17.0743 7.57875 17.1441 8.77735 17.1803 9.90364C17.193 11.9917 17.1831 14.0789 17.1849 16.1669C16.0654 16.1678 14.9449 16.1705 13.8254 16.1669C13.82 14.228 13.8318 12.2891 13.82 10.3502C13.8191 10.1721 13.82 9.99222 13.7729 9.81957C13.7448 9.28806 13.568 8.72582 13.1474 8.3742C12.5799 7.97105 11.7985 7.96743 11.1694 8.22234C10.6183 8.43567 10.301 8.99881 10.1741 9.54839C10.0227 10.1034 10.146 10.6846 10.0526 11.246C10.0399 12.1282 10.0481 13.0104 10.0472 13.8936C10.0563 13.9324 10.0735 14.0102 10.0816 14.049C10.0952 14.2596 10.1007 14.4739 10.0526 14.6818C10.0381 15.1834 10.0517 15.6851 10.0454 16.1877C8.9286 16.1841 7.81181 16.1913 6.69502 16.185C6.69411 12.5892 6.69411 8.99429 6.69502 5.39849C7.77373 5.39487 8.85245 5.39216 9.93026 5.40029C9.93208 5.8848 9.92029 6.3693 9.93752 6.8538C10.3862 6.13157 11.0788 5.56571 11.891 5.30177C12.0342 5.26471 12.1783 5.23036 12.3189 5.18245Z" fill="#A9A9AF"/>
<path d="M1.21167 16.1886C1.22073 12.5783 1.2017 8.96805 1.22164 5.35779C2.33934 5.36954 3.45794 5.36863 4.57655 5.35869C4.58652 8.96896 4.57383 12.5792 4.58289 16.1895C3.45885 16.185 2.33571 16.185 1.21167 16.1886Z" fill="#A9A9AF"/>
</g>
<defs>
<clipPath id="clip0">
<rect width="18" height="17" fill="white"/>
</clipPath>
</defs>
</svg>
