<svg width="16" height="16" viewBox="0 0 16 16" fill="none" xmlns="http://www.w3.org/2000/svg">
<path fill-rule="evenodd" clip-rule="evenodd" d="M5.06217 7H6C6.55228 7 7 6.55228 7 6V4C7 2.89543 6.10457 2 5 2H3C2.44772 2 2 2.44772 2 3C2 8.76831 7.23169 14 13 14C13.5523 14 14 13.5523 14 13V11C14 9.89543 13.1046 9 12 9H10C9.44772 9 9 9.44772 9 10V10.9378C7.45957 10.0974 6.1344 8.81594 5.23608 7.30515L5.06217 7ZM14 7C14 4.23858 11.7614 2 9 2C8.44772 2 8 2.44772 8 3C8 3.55228 8.44772 4 9 4C10.5977 4 11.9037 5.24892 11.9949 6.82373L12 7C12 7.55228 12.4477 8 13 8C13.5523 8 14 7.55228 14 7Z" fill="#A9A9AF"/>
</svg>
