<svg width="20" height="16" viewBox="0 0 20 16" fill="none" xmlns="http://www.w3.org/2000/svg">
<path d="M12.7432 0.152953C14.1859 -0.258847 15.8544 0.175953 16.862 1.27555C17.5285 1.16822 18.157 0.913031 18.7799 0.668799C19.0237 0.554896 19.2608 0.431137 19.4945 0.299712C19.178 1.1945 18.5887 2.05315 17.7019 2.47919C18.1078 2.49014 18.5003 2.38171 18.8917 2.29519C19.2675 2.20538 19.6187 2.03562 20 1.96553C19.4554 2.76394 18.7598 3.45612 17.9714 4.02344C18.1682 8.20167 15.8779 12.4412 12.1494 14.521C10.822 15.2647 9.33013 15.7083 7.81816 15.901C7.41221 15.9645 6.99396 15.8944 6.59472 15.9919C6.39678 16.0029 6.19884 16.0029 6.00201 15.9908C5.71349 15.9065 5.4093 15.9525 5.11295 15.9218C3.29792 15.7444 1.54999 15.1103 0 14.1772C1.35205 14.2921 2.73541 14.1454 4.00022 13.6514C4.75285 13.382 5.4395 12.9582 6.08812 12.5037C4.38716 12.4599 2.79132 11.3263 2.26683 9.73497C2.88414 9.80944 3.50481 9.75797 4.11206 9.63969C3.17826 9.41298 2.30374 8.91246 1.71774 8.15567C1.12167 7.45036 0.842094 6.53366 0.829792 5.62792C1.38671 5.91925 2.00626 6.13062 2.64818 6.07915C1.83404 5.51511 1.23462 4.65756 0.967345 3.72006C0.827555 3.09798 0.814135 2.45728 0.974055 1.83739C1.00984 1.72568 1.04339 1.61287 1.07359 1.49897C1.17088 1.23502 1.29166 0.979839 1.42586 0.732321C2.48826 2.01262 3.83471 3.08265 5.35674 3.79344C6.74569 4.50423 8.30351 4.83718 9.85909 4.93903C9.64885 4.03329 9.76292 3.05636 10.2069 2.23386C10.6978 1.22517 11.6585 0.472755 12.7432 0.152953Z" fill="#A9A9AF"/>
</svg>
