<svg width="15" height="17" viewBox="0 0 15 17" fill="none" xmlns="http://www.w3.org/2000/svg">
<path d="M11.4506 0.00259239C12.6334 0.00528541 13.8171 -0.00997502 14.9999 0.0124668C14.8811 0.347299 14.6842 0.647122 14.5064 0.953228C12.823 3.88054 11.1377 6.80785 9.46416 9.74055C10.4501 11.5494 11.4878 13.3312 12.4837 15.1347C12.6488 15.4399 12.8738 15.7217 12.9527 16.0656C11.7862 16.0853 10.6197 16.0727 9.45419 16.0754C8.58705 14.5467 7.7181 13.0206 6.85096 11.4919C6.509 10.9102 6.20514 10.307 5.83325 9.74414C6.63962 8.447 7.36253 7.0987 8.13443 5.78002C9.24375 3.8572 10.3322 1.92092 11.4506 0.00259239Z" fill="#A9A9AF"/>
<path d="M0.737432 2.93551C1.90208 2.90409 3.06583 2.93641 4.23048 2.92923C4.93889 4.14557 5.63278 5.3709 6.33121 6.59353C5.40874 8.11778 4.49262 9.64472 3.56834 11.1681C2.61321 11.1851 1.65809 11.169 0.702057 11.1761C0.468038 11.1753 0.228577 11.1932 0 11.1277C0.781877 9.78116 1.60366 8.4571 2.39915 7.11867C2.50618 6.90322 2.7919 6.67162 2.62319 6.41758C2.09982 5.51991 1.61455 4.60069 1.09118 3.70302C0.960566 3.45436 0.780063 3.21917 0.737432 2.93551Z" fill="#A9A9AF"/>
</svg>
