<svg width="18" height="16" viewBox="0 0 18 16" fill="none" xmlns="http://www.w3.org/2000/svg">
<path d="M1.11597 2.89488C1.75316 2.31554 2.61347 2.00609 3.46675 2C7.1874 2.01015 10.908 1.99797 14.6287 2.00609C15.681 2.02739 16.7282 2.55194 17.3403 3.42348C17.7745 3.96934 17.9654 4.67652 17.9946 5.36746C18.0026 7.39565 17.9905 9.42485 17.9996 11.454C18.0056 11.8619 17.9443 12.2698 17.8217 12.6584C17.3976 14.025 16.0388 14.995 14.6267 14.998C10.907 15.0001 7.18639 14.998 3.46675 14.9991C2.02754 15.0346 0.604403 14.0585 0.176257 12.6614C0.0626882 12.3053 -0.00163427 11.9329 0.00138084 11.5586C-0.00163427 9.49688 0.00138091 7.4342 0.000375874 5.37253C0.0124363 4.43504 0.423497 3.51886 1.11597 2.89488ZM6.6296 5.73069C6.63161 7.58639 6.62659 9.4421 6.63161 11.2968C8.22962 10.3989 9.78643 9.42688 11.3784 8.51576C9.78542 7.60364 8.2256 6.63571 6.6296 5.73069Z" fill="#A9A9AF"/>
</svg>
