<svg width="40" height="42" viewBox="0 0 40 42" fill="none" xmlns="http://www.w3.org/2000/svg">
<rect y="0.83667" width="40" height="40.7092" rx="20" fill="#FFF4EC"/>
<path d="M17.652 16.594C17.491 16.788 17.349 16.962 17.228 17.116C16.981 17.431 16.748 17.739 16.528 18.038C14.813 20.383 14 22.204 14 23.381C14 26.461 16.665 29 20 29C23.335 29 26 26.462 26 23.381C26 21.493 24.03 18.251 20.028 13.928C18.836 15.235 18.04 16.128 17.652 16.594ZM20 31C15.582 31 12 27.589 12 23.381C12 21.688 12.971 19.514 14.914 16.858C15.2968 16.3293 15.6977 15.814 16.116 15.313C16.673 14.645 17.968 13.207 20 11C25.333 16.449 28 20.576 28 23.381C28 27.589 24.418 31 20 31Z" fill="#0D39BE"/>
<path d="M17 24C17.0001 21.8879 20 19 20 19C20 19 23 21.8879 23 24C23 25.5 21.6569 27 20 27C18.3431 27 16.9999 25.5 17 24Z" stroke="#F0310A" stroke-width="2"/>
</svg>
