<svg width="40" height="42" viewBox="0 0 40 42" fill="none" xmlns="http://www.w3.org/2000/svg">
<rect y="0.545898" width="40" height="40.7092" rx="20" fill="#FFF4EC"/>
<path fill-rule="evenodd" clip-rule="evenodd" d="M27.715 27H21.559L19.901 30.435C19.7857 30.6739 19.5801 30.8573 19.3295 30.9447C19.079 31.0321 18.804 31.0163 18.565 30.901C18.3261 30.7856 18.1427 30.58 18.0553 30.3295C17.9679 30.0789 17.9837 29.8039 18.099 29.565L23.116 19.177C23.2846 18.8281 23.5509 18.5357 23.8825 18.3353C24.2141 18.135 24.5968 18.0352 24.9841 18.0483C25.3713 18.0613 25.7464 18.1865 26.0638 18.4087C26.3813 18.6309 26.6273 18.9406 26.772 19.3L30.928 29.627C31.027 29.8731 31.0241 30.1484 30.92 30.3924C30.8159 30.6364 30.6191 30.8291 30.373 30.928C30.1269 31.0269 29.8516 31.024 29.6076 30.9199C29.3636 30.8158 29.171 30.6191 29.072 30.373L27.715 27ZM22.5 25H27L25 20L22.5 25Z" fill="#0D39BE"/>
<path d="M20.0001 11H12.0001C11.7348 11 11.4805 11.1054 11.293 11.2929C11.1054 11.4804 11.0001 11.7348 11.0001 12C11.0001 12.2652 11.1054 12.5196 11.293 12.7071C11.4805 12.8946 11.7348 13 12.0001 13H20.0001C20.2653 13 20.5196 12.8946 20.7072 12.7071C20.8947 12.5196 21.0001 12.2652 21.0001 12C21.0001 11.7348 20.8947 11.4804 20.7072 11.2929C20.5196 11.1054 20.2653 11 20.0001 11Z" fill="#F0310A"/>
<path d="M11.293 15.7071C11.4805 15.8946 11.7348 16 12.0001 16H19.0031C18.2131 17.382 17.3841 18.323 16.5371 18.836C15.3821 19.537 13.8611 19.931 11.9631 20.001C11.8296 20.0026 11.6979 20.0309 11.5755 20.0842C11.4532 20.1375 11.3428 20.2147 11.2508 20.3113C11.1588 20.408 11.087 20.522 11.0398 20.6468C10.9925 20.7716 10.9707 20.9046 10.9757 21.0379C10.9806 21.1713 11.0122 21.3023 11.0685 21.4232C11.1249 21.5442 11.2049 21.6526 11.3038 21.7422C11.4027 21.8318 11.5185 21.9006 11.6445 21.9447C11.7704 21.9888 11.9039 22.0073 12.0371 21.999C14.2541 21.918 16.1021 21.439 17.5741 20.546C18.7461 19.836 19.7941 18.646 20.7391 16.992C20.9128 16.6879 21.0036 16.3435 21.0024 15.9932C21.0012 15.643 20.9081 15.2992 20.7323 14.9963C20.5565 14.6933 20.3043 14.4419 20.0008 14.267C19.6974 14.0922 19.3533 14.0001 19.0031 14H12.0001C11.7348 14 11.4805 14.1054 11.293 14.2929C11.1054 14.4804 11.0001 14.7348 11.0001 15C11.0001 15.2652 11.1054 15.5196 11.293 15.7071Z" fill="#F0310A"/>
</svg>
