<svg width="40" height="41" viewBox="0 0 40 41" fill="none" xmlns="http://www.w3.org/2000/svg">
<rect width="40" height="40.7092" rx="20" fill="#FFF4EC"/>
<path d="M10.1 18.4952L10.1005 18.495L11.8267 17.6812L13.3586 15.1347C13.3587 15.1346 13.3587 15.1345 13.3588 15.1344C13.8363 14.3336 14.6809 13.85 15.5908 13.85L22.2046 13.85L22.2055 13.85C23.0273 13.8551 23.7984 14.2522 24.2997 14.9309L24.3001 14.9314L26.2717 17.6241L29.5819 18.563L29.582 18.563C30.5106 18.8265 31.1451 19.6972 31.15 20.6891V20.6898V22.0211C31.15 23.2364 30.1878 24.2063 29.0117 24.2063H28.8501C28.4364 25.6086 27.0231 26.4361 25.6356 26.0591L25.6353 26.059C24.7433 25.8148 24.0439 25.1119 23.7748 24.2063H16.4785C16.0649 25.6086 14.6515 26.4361 13.264 26.0591L13.2637 26.059C12.3717 25.8148 11.6724 25.1119 11.4033 24.2063H10.9883C9.81224 24.2063 8.85 23.2364 8.85 22.0211L8.85 20.5031L8.85 20.5022C8.85492 19.6375 9.34192 18.8561 10.1 18.4952ZM14.2415 20.6558L14.2417 20.6558C15.4305 20.7982 16.3729 21.7395 16.5601 22.9486H23.6933C23.9189 21.5091 25.1969 20.4877 26.6131 20.6558L26.6132 20.6558C27.8021 20.7982 28.7444 21.7395 28.9316 22.9486H29.0117C29.5096 22.9486 29.9295 22.5456 29.9295 22.0211V20.6905C29.9252 20.2596 29.6479 19.8859 29.2565 19.7759L29.2561 19.7758L25.749 18.7798L25.749 18.7798L25.7472 18.7793C25.6215 18.7419 25.5061 18.6664 25.4213 18.5529L25.4203 18.5516L23.3263 15.6881C23.0589 15.3229 22.6428 15.1077 22.2046 15.1077H15.5908C15.1064 15.1077 14.6536 15.3661 14.3993 15.7998L14.3984 15.8013L12.7701 18.5053C12.7083 18.6136 12.616 18.6965 12.5063 18.7474C12.5061 18.7475 12.5058 18.7476 12.5056 18.7477L10.6105 19.6427L10.6102 19.6428C10.2879 19.7941 10.0748 20.1325 10.0705 20.5088V22.0211C10.0705 22.5413 10.4908 22.9486 10.9883 22.9486H11.3218C11.5473 21.5091 12.8253 20.4877 14.2415 20.6558ZM26.31 24.9119C27.0961 24.9119 27.7433 24.2473 27.7433 23.4146C27.7433 22.5819 27.0961 21.9173 26.31 21.9173C25.524 21.9173 24.8768 22.5819 24.8768 23.4146C24.8768 24.2473 25.524 24.9119 26.31 24.9119ZM13.9431 24.9119C14.7292 24.9119 15.3764 24.2473 15.3764 23.4146C15.3764 22.5819 14.7292 21.9173 13.9431 21.9173C13.157 21.9173 12.5098 22.5819 12.5098 23.4146C12.5098 24.2473 13.157 24.9119 13.9431 24.9119Z" fill="#0D39BE" stroke="#0D39BE" stroke-width="0.3"/>
<path d="M20 17V19H22" stroke="#F0310A" stroke-width="2" stroke-linecap="round" stroke-linejoin="round"/>
</svg>
