<svg width="40" height="42" viewBox="0 0 40 42" fill="none" xmlns="http://www.w3.org/2000/svg">
<rect y="0.709229" width="40" height="40.7092" rx="20" fill="#FFF4EC"/>
<path d="M26.126 23.2688C24.4579 23.2688 23.1008 24.6259 23.1008 26.294C23.1008 27.9622 24.4579 29.3192 26.126 29.3192C27.7945 29.3192 29.1513 27.9622 29.1513 26.294C29.1513 24.6259 27.7942 23.2688 26.126 23.2688ZM26.126 27.8066C25.2919 27.8066 24.6134 27.1282 24.6134 26.294C24.6134 25.4598 25.2919 24.7814 26.126 24.7814C26.9602 24.7814 27.6387 25.4598 27.6387 26.294C27.6387 27.1283 26.9602 27.8066 26.126 27.8066Z" fill="#0D39BE"/>
<path d="M15.7899 23.2688C14.1217 23.2688 12.7646 24.6259 12.7646 26.294C12.7646 27.9622 14.1217 29.3192 15.7899 29.3192C17.458 29.3192 18.8151 27.9622 18.8151 26.294C18.8151 24.6259 17.458 23.2688 15.7899 23.2688ZM15.7899 27.8066C14.9557 27.8066 14.2773 27.1282 14.2773 26.294C14.2773 25.4598 14.9557 24.7814 15.7899 24.7814C16.6238 24.7814 17.3025 25.4598 17.3025 26.294C17.3025 27.1283 16.6241 27.8066 15.7899 27.8066Z" fill="#0D39BE"/>
<path d="M28.1632 14.6097C28.0347 14.3543 27.7732 14.1932 27.4874 14.1932H23.5042V15.7058H27.0209L29.0804 19.802L30.4321 19.1223L28.1632 14.6097Z" fill="#0D39BE"/>
<path d="M23.8572 25.5631H18.1345V27.0757H23.8572V25.5631Z" fill="#0D39BE"/>
<path d="M13.5209 25.5631H10.8991C10.4814 25.5631 10.1428 25.9017 10.1428 26.3194C10.1428 26.7371 10.4814 27.0757 10.8991 27.0757H13.521C13.9387 27.0757 14.2772 26.7371 14.2772 26.3194C14.2772 25.9016 13.9387 25.5631 13.5209 25.5631Z" fill="#0D39BE"/>
<path d="M31.8411 20.9395L30.3535 19.0235C30.2105 18.839 29.99 18.7311 29.7562 18.7311H24.2604V13.4369C24.2604 13.0192 23.9219 12.6807 23.5041 12.6807H10.8991C10.4814 12.6807 10.1428 13.0192 10.1428 13.4369C10.1428 13.8546 10.4814 14.1932 10.8991 14.1932H22.7478V19.4873C22.7478 19.9051 23.0864 20.2436 23.5041 20.2436H29.3859L30.4873 21.6624V25.5629H28.3948C27.9771 25.5629 27.6386 25.9015 27.6386 26.3192C27.6386 26.737 27.9771 27.0755 28.3948 27.0755H31.2436C31.6613 27.0755 31.9999 26.7369 31.9999 26.3192V21.4034C31.9999 21.2354 31.9439 21.0721 31.8411 20.9395Z" fill="#0D39BE"/>
<path d="M13.4706 21.7312H9.99163C9.57388 21.7312 9.23535 22.0698 9.23535 22.4875C9.23535 22.9052 9.57393 23.2438 9.99163 23.2438H13.4706C13.8884 23.2438 14.2269 22.9052 14.2269 22.4875C14.2269 22.0698 13.8884 21.7312 13.4706 21.7312Z" fill="#F0310A"/>
<path d="M15.2101 18.7562H8.75628C8.33858 18.7562 8 19.0948 8 19.5126C8 19.9303 8.33858 20.2688 8.75628 20.2688H15.2101C15.6278 20.2688 15.9664 19.9303 15.9664 19.5126C15.9664 19.0949 15.6278 18.7562 15.2101 18.7562Z" fill="#0D39BE"/>
<path d="M16.4454 15.7815H9.99163C9.57388 15.7815 9.23535 16.1201 9.23535 16.5378C9.23535 16.9555 9.57393 17.2941 9.99163 17.2941H16.4454C16.8632 17.2941 17.2017 16.9555 17.2017 16.5378C17.2018 16.1201 16.8632 15.7815 16.4454 15.7815Z" fill="#F0310A"/>
</svg>
