<svg width="40" height="42" viewBox="0 0 40 42" fill="none" xmlns="http://www.w3.org/2000/svg">
<rect y="0.709229" width="40" height="40.7092" rx="20" fill="#FFF4EC"/>
<path d="M21.8049 25.1951V24.2195C21.8049 23.702 21.5993 23.2057 21.2334 22.8398C20.8675 22.4739 20.3712 22.2683 19.8537 22.2683H15.9512C15.4337 22.2683 14.9374 22.4739 14.5715 22.8398C14.2056 23.2057 14 23.702 14 24.2195V25.1951" stroke="#0D39BE" stroke-width="2" stroke-linecap="round" stroke-linejoin="round"/>
<path d="M17.9025 20.3171C18.9801 20.3171 19.8537 19.4435 19.8537 18.3659C19.8537 17.2883 18.9801 16.4147 17.9025 16.4147C16.8249 16.4147 15.9513 17.2883 15.9513 18.3659C15.9513 19.4435 16.8249 20.3171 17.9025 20.3171Z" stroke="#0D39BE" stroke-width="2" stroke-linecap="round" stroke-linejoin="round"/>
<path d="M25.7317 25.1952V24.2196C25.7314 23.7873 25.5875 23.3673 25.3226 23.0256C25.0578 22.6839 24.6869 22.4399 24.2683 22.3318" stroke="#0D39BE" stroke-width="2" stroke-linecap="round" stroke-linejoin="round"/>
<path d="M22.3171 16.478C22.7369 16.5855 23.1089 16.8296 23.3745 17.1718C23.6402 17.5141 23.7844 17.935 23.7844 18.3683C23.7844 18.8015 23.6402 19.2225 23.3745 19.5647C23.1089 19.907 22.7369 20.1511 22.3171 20.2585" stroke="#0D39BE" stroke-width="2" stroke-linecap="round" stroke-linejoin="round"/>
<path d="M12 16.122V13H15.5122" stroke="#F0310A" stroke-width="2" stroke-linecap="round" stroke-linejoin="round"/>
<path d="M28.3903 25.878V29H24.8781" stroke="#F0310A" stroke-width="2" stroke-linecap="round" stroke-linejoin="round"/>
</svg>
