<svg width="40" height="42" viewBox="0 0 40 42" fill="none" xmlns="http://www.w3.org/2000/svg">
<rect y="0.83667" width="40" height="40.7092" rx="20" fill="#FFF4EC"/>
<path d="M22.7 16.3C22.5168 16.4869 22.4141 16.7382 22.4141 17C22.4141 17.2617 22.5168 17.5131 22.7 17.7L24.3 19.3C24.4869 19.4832 24.7382 19.5858 25 19.5858C25.2617 19.5858 25.513 19.4832 25.7 19.3L29.47 15.53C29.9728 16.6412 30.1251 17.8792 29.9064 19.0791C29.6878 20.279 29.1087 21.3838 28.2463 22.2463C27.3838 23.1087 26.279 23.6878 25.0791 23.9064C23.8792 24.1251 22.6412 23.9728 21.53 23.47L14.62 30.38C14.2222 30.7778 13.6826 31.0013 13.12 31.0013C12.5574 31.0013 12.0178 30.7778 11.62 30.38C11.2222 29.9822 10.9987 29.4426 10.9987 28.88C10.9987 28.3174 11.2222 27.7778 11.62 27.38L18.53 20.47C18.0271 19.3588 17.8749 18.1207 18.0935 16.9208C18.3121 15.7209 18.8913 14.6161 19.7537 13.7537C20.6161 12.8913 21.7209 12.3121 22.9208 12.0935C24.1207 11.8749 25.3588 12.0271 26.47 12.53L22.71 16.29L22.7 16.3Z" stroke="#0D39BE" stroke-width="2" stroke-linecap="round" stroke-linejoin="round"/>
<circle cx="12" cy="18" r="3" fill="#F0310A"/>
</svg>
