<svg width="40" height="41" viewBox="0 0 40 41" fill="none" xmlns="http://www.w3.org/2000/svg">
<rect width="40" height="40.7092" rx="20" fill="#FFF4EC"/>
<path d="M11.625 24V26.5C11.625 26.7761 11.8489 27 12.125 27H22.625C22.9012 27 23.125 26.7761 23.125 26.5V24L29.625 17M11.625 24C11.6191 24 10.1231 24 9.12502 24C7.625 24 7.62501 18.5 9.12497 18.5C9.62498 18.5 11.625 18.5 11.625 18.5M11.625 24V18.5M11.625 18.5V17.5C11.625 17.2239 11.8489 17 12.125 17H15.625M31.625 17H29.625M29.625 17H27.625L23.8678 19.0873C23.5346 19.2725 23.125 19.0315 23.125 18.6502V17.5C23.125 17.2239 22.9012 17 22.625 17H19.125M19.125 17V15V14H21.625H15.625M19.125 17H15.625M13.125 14H15.625M15.625 14V17" stroke="#0D39BE" stroke-width="1.8" stroke-linecap="round" stroke-linejoin="round"/>
<path d="M29.625 24C29.6251 22 31.625 20 31.625 20C31.625 20 33.625 22 33.625 24C33.625 24.8732 32.4982 25.5 31.625 25.5C30.7518 25.5 29.625 24.8732 29.625 24Z" stroke="#F0310A" stroke-width="1.8"/>
</svg>
