<svg width="40" height="42" viewBox="0 0 40 42" fill="none" xmlns="http://www.w3.org/2000/svg">
<rect y="0.709229" width="40" height="40.7092" rx="20" fill="#FFF4EC"/>
<path d="M14 13C14.2652 13 14.5196 13.1054 14.7071 13.2929C14.8946 13.4804 15 13.7348 15 14V28C15 28.2652 14.8946 28.5196 14.7071 28.7071C14.5196 28.8946 14.2652 29 14 29C13.7348 29 13.4804 28.8946 13.2929 28.7071C13.1054 28.5196 13 28.2652 13 28V14C13 13.7348 13.1054 13.4804 13.2929 13.2929C13.4804 13.1054 13.7348 13 14 13V13ZM26 17C26.2652 17 26.5196 17.1054 26.7071 17.2929C26.8946 17.4804 27 17.7348 27 18V28C27 28.2652 26.8946 28.5196 26.7071 28.7071C26.5196 28.8946 26.2652 29 26 29C25.7348 29 25.4804 28.8946 25.2929 28.7071C25.1054 28.5196 25 28.2652 25 28V18C25 17.7348 25.1054 17.4804 25.2929 17.2929C25.4804 17.1054 25.7348 17 26 17ZM20 21C20.2652 21 20.5196 21.1054 20.7071 21.2929C20.8946 21.4804 21 21.7348 21 22V28C21 28.2652 20.8946 28.5196 20.7071 28.7071C20.5196 28.8946 20.2652 29 20 29C19.7348 29 19.4804 28.8946 19.2929 28.7071C19.1054 28.5196 19 28.2652 19 28V22C19 21.7348 19.1054 21.4804 19.2929 21.2929C19.4804 21.1054 19.7348 21 20 21Z" fill="#0D39BE"/>
<line x1="20" y1="28" x2="20" y2="22" stroke="#F0310A" stroke-width="2" stroke-linecap="round"/>
</svg>
