<svg width="40" height="42" viewBox="0 0 40 42" fill="none" xmlns="http://www.w3.org/2000/svg">
<rect y="0.418335" width="40" height="40.7092" rx="20" fill="#FFF4EC"/>
<path d="M16 25.9183H19L19.5 26.9183H21.5V25.9183H20.5L20 24.9183C20 24.9183 21 24.1224 21 23.4183C21 22.4183 21 21.4183 21 20.4183C21 18.8933 19.025 17.9183 17.5 17.9183C16.5 17.9183 15.5 17.9183 14.5 17.9183C12.6579 17.9183 11.8421 15.4183 10 15.4183C9 15.4183 7 15.4183 7 15.4183V25.9183H11" stroke="#0D39BE" stroke-width="1.8" stroke-linecap="round" stroke-linejoin="round"/>
<circle cx="13.5" cy="25.4183" r="2.6" stroke="#0D39BE" stroke-width="1.8"/>
<path d="M24.5 24.6664C24 25.1664 24 25.8232 24 26.1664C24 26.5859 24.1952 27.3275 25 27.6664C25.742 27.9788 27 27.1664 27 27.1664C27 27.1664 27.8825 28.1664 28.5 28.1664C29.1175 28.1664 30 27.6664 30 27.6664C30 27.6664 30.8831 28.1932 31.5 28.1664C32.4754 28.124 33.256 27.6117 33.5 26.6664C33.8124 25.4557 31.5 24.1664 31.5 24.1664V23.6664C31.5 23.6664 31.9127 22.865 32 22.1664C32.1083 21.2999 31.7643 20.5887 31 20.1664C30.1286 19.6848 29.1731 19.9327 28.5 20.6664C27.9558 21.2596 28 22.6664 28 22.6664C28 22.6664 27.0893 22.4584 26.5 22.6664C25.8361 22.9007 26 24.1664 26 24.1664C26 24.1664 25 24.1664 24.5 24.6664Z" stroke="#0D39BE" stroke-width="1.8" stroke-linecap="round" stroke-linejoin="round"/>
<path d="M26 18.9178C26 18.9178 28.6402 15.9996 31.5 16.9183C33.3591 17.5155 34.5 19.9178 34.5 19.9178" stroke="#F0310A" stroke-width="1.8" stroke-linecap="round" stroke-linejoin="round"/>
</svg>
