<svg width="108" height="16" viewBox="0 0 108 16" fill="none" xmlns="http://www.w3.org/2000/svg">
<path d="M12.4316 10.2637C12.321 11.7936 11.7546 12.998 10.7324 13.877C9.7168 14.7559 8.37565 15.1953 6.70898 15.1953C4.88607 15.1953 3.45052 14.5833 2.40234 13.3594C1.36068 12.1289 0.839844 10.4427 0.839844 8.30078V7.43164C0.839844 6.06445 1.08073 4.86003 1.5625 3.81836C2.04427 2.77669 2.73112 1.97917 3.62305 1.42578C4.52148 0.865885 5.56315 0.585938 6.74805 0.585938C8.38867 0.585938 9.71029 1.02539 10.7129 1.9043C11.7155 2.7832 12.2949 4.01693 12.4512 5.60547H9.52148C9.44987 4.6875 9.19271 4.02344 8.75 3.61328C8.3138 3.19661 7.64648 2.98828 6.74805 2.98828C5.77148 2.98828 5.03906 3.33984 4.55078 4.04297C4.06901 4.73958 3.82161 5.82357 3.80859 7.29492V8.36914C3.80859 9.9056 4.03971 11.0286 4.50195 11.7383C4.9707 12.4479 5.70638 12.8027 6.70898 12.8027C7.61393 12.8027 8.28776 12.5977 8.73047 12.1875C9.17969 11.7708 9.43685 11.1296 9.50195 10.2637H12.4316ZM26.0352 8.21289C26.0352 9.61263 25.7878 10.8398 25.293 11.8945C24.7982 12.9492 24.0885 13.763 23.1641 14.3359C22.2461 14.9089 21.1914 15.1953 20 15.1953C18.8216 15.1953 17.7702 14.9121 16.8457 14.3457C15.9212 13.7793 15.2051 12.972 14.6973 11.9238C14.1895 10.8691 13.9323 9.6582 13.9258 8.29102V7.58789C13.9258 6.18815 14.1764 4.95768 14.6777 3.89648C15.1855 2.82878 15.8984 2.01172 16.8164 1.44531C17.7409 0.872396 18.7956 0.585938 19.9805 0.585938C21.1654 0.585938 22.2168 0.872396 23.1348 1.44531C24.0592 2.01172 24.7721 2.82878 25.2734 3.89648C25.7812 4.95768 26.0352 6.1849 26.0352 7.57812V8.21289ZM23.0664 7.56836C23.0664 6.07747 22.7995 4.94466 22.2656 4.16992C21.7318 3.39518 20.9701 3.00781 19.9805 3.00781C18.9974 3.00781 18.2389 3.39193 17.7051 4.16016C17.1712 4.92188 16.901 6.04167 16.8945 7.51953V8.21289C16.8945 9.66471 17.1615 10.791 17.6953 11.5918C18.2292 12.3926 18.9974 12.793 20 12.793C20.9831 12.793 21.7383 12.4089 22.2656 11.6406C22.793 10.8659 23.0599 9.73958 23.0664 8.26172V7.56836ZM39.7266 15H36.7969L31.0938 5.64453V15H28.1641V0.78125H31.0938L36.8066 10.1562V0.78125H39.7266V15ZM50.8398 9.18945H45.2148V15H42.2852V0.78125H51.543V3.1543H45.2148V6.82617H50.8398V9.18945ZM56.3574 15H53.4277V0.78125H56.3574V15ZM69.4922 3.1543H65.1367V15H62.207V3.1543H57.9102V0.78125H69.4922V3.1543ZM79.7266 8.83789H74.1016V12.6465H80.7031V15H71.1719V0.78125H80.6836V3.1543H74.1016V6.54297H79.7266V8.83789ZM93.584 10.2637C93.4733 11.7936 92.9069 12.998 91.8848 13.877C90.8691 14.7559 89.528 15.1953 87.8613 15.1953C86.0384 15.1953 84.6029 14.5833 83.5547 13.3594C82.513 12.1289 81.9922 10.4427 81.9922 8.30078V7.43164C81.9922 6.06445 82.2331 4.86003 82.7148 3.81836C83.1966 2.77669 83.8835 1.97917 84.7754 1.42578C85.6738 0.865885 86.7155 0.585938 87.9004 0.585938C89.541 0.585938 90.8626 1.02539 91.8652 1.9043C92.8678 2.7832 93.4473 4.01693 93.6035 5.60547H90.6738C90.6022 4.6875 90.3451 4.02344 89.9023 3.61328C89.4661 3.19661 88.7988 2.98828 87.9004 2.98828C86.9238 2.98828 86.1914 3.33984 85.7031 4.04297C85.2214 4.73958 84.974 5.82357 84.9609 7.29492V8.36914C84.9609 9.9056 85.1921 11.0286 85.6543 11.7383C86.123 12.4479 86.8587 12.8027 87.8613 12.8027C88.7663 12.8027 89.4401 12.5977 89.8828 12.1875C90.332 11.7708 90.5892 11.1296 90.6543 10.2637H93.584ZM107.08 15H104.15V8.90625H98.4375V15H95.5078V0.78125H98.4375V6.54297H104.15V0.78125H107.08V15Z" fill="white"/>
</svg>
